# xmcd CD database file
#
# Track frame offsets:
#	150
#	19964
#	38206
#	55611
#	73365
#	90214
#	108161
#	125936
#	144981
#	167484
#	186783
#	209587
#	224363
#	245683
#
# Disc length: 3526 seconds
#
# Revision: 0
# Processed by: cddbd v1.5.2PL0 Copyright (c) Steve Scherf et al.
# Submitted via: CDex 1.51
#
DISCID=ce0dc40e
DTITLE=Jack Johnson - BEST OF KOKUA FESTIVAL
DYEAR=2012
DGENRE=Country
TTITLE0=Better Together
TTITLE1=Cry Cry Cry
TTITLE2=A Pirate Looks At Forty
TTITLE3=Mudfootball
TTITLE4=Constellations
TTITLE5=Take It Easy
TTITLE6=Island Style
TTITLE7=Breakdown
TTITLE8=Further On Down The Road
TTITLE9=Welcome To Jamrock
TTITLE10=High Tide Or Low Tide
TTITLE11=Blue Eyes Crying In the Rain
TTITLE12=I Shall Be Released
TTITLE13=Let It Be Sung
EXTD=YEAR: 2012
EXTT0=
EXTT1=
EXTT2=
EXTT3=
EXTT4=
EXTT5=
EXTT6=
EXTT7=
EXTT8=
EXTT9=
EXTT10=
EXTT11=
EXTT12=
EXTT13=
PLAYORDER=
